<?xml version="1.0" encoding="UTF-8"?>
<svg version="1.1" xmlns="http://www.w3.org/2000/svg" width="532" height="522">
<path d="M0 0 C2.31 0 4.62 0 7 0 C7 0.99 7 1.98 7 3 C8.65 3.33 10.3 3.66 12 4 C12 4.66 12 5.32 12 6 C13.65 5.67 15.3 5.34 17 5 C17.4021875 5.9590625 17.4021875 5.9590625 17.8125 6.9375 C18.88667752 9.33131686 18.88667752 9.33131686 22 10 C22.33 11.65 22.66 13.3 23 15 C21.68 15.33 20.36 15.66 19 16 C19 16.66 19 17.32 19 18 C19.598125 18.226875 20.19625 18.45375 20.8125 18.6875 C23.61099401 20.3665964 24.49768865 22.13195105 26 25 C26.391875 25.61101563 26.78375 26.22203125 27.1875 26.8515625 C28.5802185 30.5342316 26.71491409 33.21531697 25.22265625 36.66015625 C23.8456522 39.29538125 22.24529797 41.0643983 20 43 C19.67 43.99 19.34 44.98 19 46 C19.8353125 45.5978125 19.8353125 45.5978125 20.6875 45.1875 C23 45 23 45 25.75 46.9375 C28.78880488 51.07365108 28.4007246 52.95087009 28 58 C28 59.32 28 60.64 28 62 C28 63.32 28 64.64 28 66 C27.34 66 26.68 66 26 66 C25.67 66.99 25.34 67.98 25 69 C22.27734375 70.16796875 22.27734375 70.16796875 18.9375 71.1875 C17.83277344 71.53167969 16.72804688 71.87585938 15.58984375 72.23046875 C14.73519531 72.48441406 13.88054687 72.73835938 13 73 C13 73.66 13 74.32 13 75 C13.56203125 74.83628906 14.1240625 74.67257813 14.703125 74.50390625 C17.13059056 73.97135003 19.26889681 73.90101319 21.75 73.9375 C22.54921875 73.94652344 23.3484375 73.95554687 24.171875 73.96484375 C24.77515625 73.97644531 25.3784375 73.98804687 26 74 C27.88235294 82.23529412 27.88235294 82.23529412 26 86 C26.33 86.99 26.66 87.98 27 89 C26.21562344 90.69948254 25.43042114 92.39860281 24.63671875 94.09375 C23.60395415 97.18570781 24.33945409 99.87741932 25 103 C25 106 25 106 23 109 C23.33 109.66 23.66 110.32 24 111 C24.09504525 112.4246028 24.1307286 113.85348167 24.1328125 115.28125 C24.13410156 116.12300781 24.13539063 116.96476562 24.13671875 117.83203125 C24.13285156 118.71246094 24.12898438 119.59289062 24.125 120.5 C24.12886719 121.38042969 24.13273437 122.26085937 24.13671875 123.16796875 C24.13478516 124.43060547 24.13478516 124.43060547 24.1328125 125.71875 C24.13168457 126.49154297 24.13055664 127.26433594 24.12939453 128.06054688 C24 130 24 130 23 132 C23.66 132.45375 24.32 132.9075 25 133.375 C25.66 133.91125 26.32 134.4475 27 135 C27 135.66 27 136.32 27 137 C26.01 137.33 25.02 137.66 24 138 C23.855625 138.94875 23.71125 139.8975 23.5625 140.875 C23 144 23 144 22 146 C22.0950739 148.0480428 22.0950739 148.0480428 23 150 C24.9837767 151.28436734 24.9837767 151.28436734 27 152 C26.690625 152.928125 26.690625 152.928125 26.375 153.875 C26.25125 154.57625 26.1275 155.2775 26 156 C26.66 156.66 27.32 157.32 28 158 C27.90646966 160.94620583 27.81168466 163.22198066 27 166 C25 167.8125 25 167.8125 23 169 C22.67 169.99 22.34 170.98 22 172 C21.34 172 20.68 172 20 172 C20 172.66 20 173.32 20 174 C16.535 174.99 16.535 174.99 13 176 C13.33 176.66 13.66 177.32 14 178 C14.33 177.34 14.66 176.68 15 176 C19.47540984 174.73770492 19.47540984 174.73770492 22 176 C22 177.32 22 178.64 22 180 C24.64 179.67 27.28 179.34 30 179 C31.5121867 182.02437339 31.17263369 184.66241534 31 188 C30.125 189.9375 30.125 189.9375 29 192 C28.71591974 193.35144976 28.44646555 194.70601377 28.1875 196.0625 C27.43906619 199.27777165 27.21368212 199.82905431 24.5 202 C22 203 22 203 20 203 C20 203.99 20 204.98 20 206 C20.66 206 21.32 206 22 206 C22.33 209.63 22.66 213.26 23 217 C23.33 215.68 23.66 214.36 24 213 C25.5625 210.75 25.5625 210.75 28 209 C31.47041009 208.49833676 34.80249299 208.40124649 38 210 C38 208.35 38 206.7 38 205 C35.36 205 32.72 205 30 205 C30 203.68 30 202.36 30 201 C35.22270869 198.33535271 38.0819503 197.67145823 44 199 C43.67 197.35 43.34 195.7 43 194 C44.32 193.67 45.64 193.34 47 193 C47 192.34 47 191.68 47 191 C47.928125 190.566875 48.85625 190.13375 49.8125 189.6875 C52.89011745 188.27197763 52.89011745 188.27197763 54.4375 186.5 C56 185 56 185 59.5 183.75 C63.25943338 181.88627168 63.25943338 181.88627168 64.875 178.4375 C65.24625 177.303125 65.6175 176.16875 66 175 C67.25541557 172.48916886 68.50063488 172.12874554 71 171 C70.34 169.35 69.68 167.7 69 166 C71.64738916 164.5393715 72.89448334 164 76 164 C76 163.01 76 162.02 76 161 C80.62440425 158.92373687 85.1008651 157.29977048 90 156 C90.0825 155.46375 90.165 154.9275 90.25 154.375 C91.25948043 151.17831198 93.14665069 148.78002397 95 146 C95.76939681 143.77397385 95.76939681 143.77397385 96 142 C100.75 140.875 100.75 140.875 103 142 C103 141.01 103 140.02 103 139 C101.68 138.67 100.36 138.34 99 138 C99 137.01 99 136.02 99 135 C101.64 135 104.28 135 107 135 C106.67 133.02 106.34 131.04 106 129 C113.28571429 125.42857143 113.28571429 125.42857143 118 127 C118 126.34 118 125.68 118 125 C117.01 124.67 116.02 124.34 115 124 C114.67 121.69 114.34 119.38 114 117 C117.465 116.505 117.465 116.505 121 116 C120.9071875 114.3603125 120.9071875 114.3603125 120.8125 112.6875 C121 109 121 109 122.0625 107.125 C124.92113133 105.46514955 127.74739303 105.30684971 131 105 C131.37125 103.824375 131.37125 103.824375 131.75 102.625 C133.15389099 99.67682892 134.00675737 99.0975223 137 98 C136.938125 96.6078125 136.938125 96.6078125 136.875 95.1875 C137 92 137 92 139 89 C140.99422795 88.63371323 142.99453311 88.29868656 145 88 C145.33 87.34 145.66 86.68 146 86 C146.61875 85.896875 147.2375 85.79375 147.875 85.6875 C150.27080252 85.16962026 150.27080252 85.16962026 151.5 82.5 C153 80 153 80 154.9375 79.4375 C155.618125 79.293125 156.29875 79.14875 157 79 C157.58394531 78.36707031 158.16789062 77.73414062 158.76953125 77.08203125 C163.4727783 72.69178488 171.21399349 71.88494764 177.5 71.625 C181 72 181 72 183.4375 73.0625 C185.68444007 75.84870568 185.67608399 78.50170711 186 82 C186.33 82.33 186.66 82.66 187 83 C188.27875 82.95875 189.5575 82.9175 190.875 82.875 C194.74095683 82.80571762 194.74095683 82.80571762 197 84.5 C197.33 84.995 197.66 85.49 198 86 C197.67 86.66 197.34 87.32 197 88 C198.65 88.66 200.3 89.32 202 90 C201.16808887 95.82337794 196.33410795 98.55493984 192 102 C191.443125 102.556875 190.88625 103.11375 190.3125 103.6875 C189 105 189 105 187 106 C186.896875 106.804375 186.79375 107.60875 186.6875 108.4375 C186.3471875 109.7059375 186.3471875 109.7059375 186 111 C183.4375 112.3125 183.4375 112.3125 181 113 C181.33 115.31 181.66 117.62 182 120 C172.28571429 126 172.28571429 126 168 126 C168.391875 127.258125 168.78375 128.51625 169.1875 129.8125 C169.74609375 132.01953125 169.74609375 132.01953125 170 134 C168.75 136 168.75 136 167 137 C166.34 137 165.68 137 165 137 C165 138.32 165 139.64 165 141 C161.94152152 141.54372951 159.11227195 142 156 142 C155.00564594 145.09354597 155.12159004 146.90279155 156 150 C155.40832031 150.14695313 154.81664062 150.29390625 154.20703125 150.4453125 C148.51943674 152.05355745 148.51943674 152.05355745 144.3125 156 C141.79952845 159.2600712 139.75074366 160.42992126 136 162 C136 163.65 136 165.3 136 167 C134.35 167.33 132.7 167.66 131 168 C130.896875 168.7425 130.79375 169.485 130.6875 170.25 C129.94569253 173.21722987 129.11319446 174.80552883 127 177 C126.01 177 125.02 177 124 177 C124 177.99 124 178.98 124 180 C121.69 180.33 119.38 180.66 117 181 C117.66 181.66 118.32 182.32 119 183 C118.625 186.125 118.625 186.125 118 189 C114.91915045 189.85659135 111.93207999 190.26941369 108.75 190.5625 C107.85796875 190.64628906 106.9659375 190.73007813 106.046875 190.81640625 C105.37140625 190.87699219 104.6959375 190.93757812 104 191 C104.33 193.64 104.66 196.28 105 199 C104.34 199.33 103.68 199.66 103 200 C103.185625 200.515625 103.37125 201.03125 103.5625 201.5625 C104.18191556 205.01352956 103.8638465 207.60631732 103 211 C99.29574789 214.36750192 94.85190589 214.78515546 90 215 C88.60408155 214.89698019 87.20824533 214.79283927 85.8125 214.6875 C82.15299327 214.61134388 82.15299327 214.61134388 80.4921875 216.296875 C79.27683399 217.82516384 78.1349412 219.41108232 77 221 C76.01 221.33 75.02 221.66 74 222 C74.69867188 221.98839844 75.39734375 221.97679687 76.1171875 221.96484375 C77.02726562 221.95582031 77.93734375 221.94679687 78.875 221.9375 C79.77992188 221.92589844 80.68484375 221.91429687 81.6171875 221.90234375 C84 222 84 222 86 223 C86.21148404 226.10176585 86.27402217 228.38345012 85 231.25 C82.43287127 233.49623764 80.19854829 233.77114091 76.91015625 234.43359375 C74.77209273 234.89773857 74.77209273 234.89773857 73 237.0625 C69.92323916 240.04311206 67.22350991 239.79563662 63 240 C62.34 239.67 61.68 239.34 61 239 C60.938125 240.258125 60.87625 241.51625 60.8125 242.8125 C60.5546875 245.01953125 60.5546875 245.01953125 60 247 C57.4375 249 57.4375 249 55 250 C58.82788944 251.27596315 60.36656983 250.62344752 64 249 C65.42055068 246.99863756 65.42055068 246.99863756 66 245 C71.76471999 244.89518691 77.2852729 245.26708873 83 246 C83.77472656 246.09539062 84.54945313 246.19078125 85.34765625 246.2890625 C87.23230746 246.52173549 89.11623622 246.76024825 91 247 C91 248.98 91 250.96 91 253 C92.32 252.67 93.64 252.34 95 252 C94.67 251.67 94.34 251.34 94 251 C94.28730055 248.66055264 94.61936779 246.3260857 95 244 C99.7970924 241.44024805 104.07618548 241.96171551 109.3125 242.375 C110.14845703 242.43171875 110.98441406 242.4884375 111.84570312 242.546875 C113.89786928 242.68759496 115.94906118 242.8423993 118 243 C118 243.66 118 244.32 118 245 C118.66 245 119.32 245 120 245 C120 245.99 120 246.98 120 248 C121.03125 248.28875 122.0625 248.5775 123.125 248.875 C126.45007997 249.82308798 129.72751453 250.88256594 133 252 C134.70840281 250.36587557 135.93453047 249.13093906 137 247 C139.64 247 142.28 247 145 247 C145 249.31 145 251.62 145 254 C145.99 254 146.98 254 148 254 C148 253.34 148 252.68 148 252 C153.75 250.875 153.75 250.875 156 252 C156.33 252.99 156.66 253.98 157 255 C157.7115625 253.5459375 157.7115625 253.5459375 158.4375 252.0625 C160 249 160 249 161 248 C163.33297433 247.95907063 165.66705225 247.95758277 168 248 C167.67 249.65 167.34 251.3 167 253 C168.98 252.67 170.96 252.34 173 252 C173 251.01 173 250.02 173 249 C176.67692213 247.82338492 180.1638778 247.85524067 184 248 C184.33 248.33 184.66 248.66 185 249 C184.71269945 251.33944736 184.38063221 253.6739143 184 256 C186.49004504 255.43923199 186.49004504 255.43923199 189 254 C190.37189827 250.97017694 190.37189827 250.97017694 191 248 C197.9732055 247.7766589 203.63936577 247.81968289 210 251 C210 250.34 210 249.68 210 249 C210.71027344 248.79503906 211.42054688 248.59007812 212.15234375 248.37890625 C213.07144531 248.10949219 213.99054688 247.84007812 214.9375 247.5625 C215.85402344 247.29566406 216.77054687 247.02882812 217.71484375 246.75390625 C219.9402493 246.20973949 219.9402493 246.20973949 221 245 C227.52542373 244.76271186 227.52542373 244.76271186 230 246 C230 248 230 250 230 252 C230.680625 251.855625 231.36125 251.71125 232.0625 251.5625 C233.031875 251.376875 234.00125 251.19125 235 251 C236.7634375 250.6596875 236.7634375 250.6596875 238.5625 250.3125 C242 250 242 250 243.9375 251 C247.31301287 252.6366123 250.3612534 251.60645777 254 251 C254.33 251.66 254.66 252.32 255 253 C255.99 253.33 256.98 253.66 258 254 C258.33 256.31 258.66 258.62 259 261 C257.35 261.33 255.7 261.66 254 262 C254.33 263.32 254.66 264.64 255 266 C256.98 266 258.96 266 261 266 C261 266.99 261 267.98 261 269 C263.31 269.66 265.62 270.32 268 271 C268 272.32 268 273.64 268 275 C265.03 275.33 262.06 275.66 259 276 C259.33 277.65 259.66 279.3 260 281 C261.423125 280.9690625 261.423125 280.9690625 262.875 280.9375 C266 281 266 281 268 282 C267.73849453 285.13806568 267.21296419 286.74297426 265.1875 289.1875 C258.91512941 292.7541421 250.13120044 293.85574405 243 293 C239.5625 291.375 239.5625 291.375 237 289 C236.83984375 285.8515625 236.83984375 285.8515625 237 283 C236.11957031 283.2165625 235.23914063 283.433125 234.33203125 283.65625 C232.58986328 284.07390625 232.58986328 284.07390625 230.8125 284.5 C229.08966797 284.91765625 229.08966797 284.91765625 227.33203125 285.34375 C224.43181171 285.91495385 221.93903615 286.13283779 219 286 C218.67 288.31 218.34 290.62 218 293 C216.44033408 293.36644578 214.87707349 293.71760862 213.3125 294.0625 C212.44238281 294.25972656 211.57226562 294.45695312 210.67578125 294.66015625 C207.83998724 295.02032279 205.75210018 294.70909969 203 294 C203.0825 293.236875 203.165 292.47375 203.25 291.6875 C203.29166667 288.85416667 203.29166667 288.85416667 201 287.1875 C200.34 286.795625 199.68 286.40375 199 286 C198.67 288.31 198.34 290.62 198 293 C193.25 294.125 193.25 294.125 191 293 C189.31199554 293.00577096 187.62401371 293.05383908 185.9375 293.125 C181.94897244 293.18756514 178.96082262 292.83122643 175.25 291.375 C170.78605293 289.64572321 168.38746977 290.22634201 164 292 C163.34 291.34 162.68 290.68 162 290 C159.44289462 289.88099737 156.98858967 289.85933291 154.4375 289.9375 C151.95345638 289.99942907 149.48591351 290.02054474 147 290 C146.67 289.67 146.34 289.34 146 289 C141.62297367 290.22556737 137.30322683 291.53060547 133 293 C132.67 291.35 132.34 289.7 132 288 C131.21625 288.20625 130.4325 288.4125 129.625 288.625 C128.75875 288.74875 127.8925 288.8725 127 289 C126.34 288.34 125.68 287.68 125 287 C123.29159719 288.63412443 122.06546953 289.86906094 121 292 C118.67843403 292.40729228 116.3431213 292.74438677 114 293 C114 292.34 114 291.68 114 291 C111.98177083 291.09765625 109.96354167 291.1953125 107.9453125 291.29296875 C106.98238281 291.14794922 106.98238281 291.14794922 106 291 C105.34 290.01 104.68 289.02 104 288 C103.01 287.67 102.02 287.34 101 287 C101 287.99 101 288.98 101 290 C99.44033782 290.508783 97.87710759 291.00663469 96.3125 291.5 C95.00732422 291.91765625 95.00732422 291.91765625 93.67578125 292.34375 C90.98833219 293.00286159 88.75454538 293.1929629 86 293 C85.67 292.67 85.34 292.34 85 292 C82.30917128 292.17635452 79.67148554 292.61835921 77 293 C76.67 291.68 76.34 290.36 76 289 C68.71147813 289.44287855 68.71147813 289.44287855 62 292 C61.11306697 294.04105639 61.11306697 294.04105639 61 296 C58.625 296.625 58.625 296.625 56 297 C55.34 296.34 54.68 295.68 54 295 C51.39719432 295.32041397 51.39719432 295.32041397 49 296 C50.83883881 298.28728734 50.83883881 298.28728734 53.625 298.125 C54.800625 298.063125 54.800625 298.063125 56 298 C56.35191406 298.95132813 56.35191406 298.95132813 56.7109375 299.921875 C57.82290908 302.18250739 57.82290908 302.18250739 60.1640625 302.828125 C60.97617187 302.96734375 61.78828125 303.1065625 62.625 303.25 C63.44226563 303.39953125 64.25953125 303.5490625 65.1015625 303.703125 C66.04128906 303.85007812 66.04128906 303.85007812 67 304 C66.34 305.65 65.68 307.3 65 309 C66.7015625 308.9690625 66.7015625 308.9690625 68.4375 308.9375 C72 309 72 309 73 310 C73.04063832 311.66617115 73.042721 313.33388095 73 315 C74.0828125 314.9071875 74.0828125 314.9071875 75.1875 314.8125 C79.67292065 315.11152804 82.2228332 317.16315547 85.23828125 320.41015625 C85.92277344 321.28542969 86.60726563 322.16070312 87.3125 323.0625 C88.00988281 323.94035156 88.70726562 324.81820313 89.42578125 325.72265625 C91 328 91 328 91 330 C91.99 330.33 92.98 330.66 94 331 C93.91621094 331.63808594 93.83242188 332.27617187 93.74609375 332.93359375 C93.64425781 333.75988281 93.54242188 334.58617187 93.4375 335.4375 C93.33308594 336.26121094 93.22867187 337.08492188 93.12109375 337.93359375 C93.08113281 338.61550781 93.04117187 339.29742187 93 340 C94.66342837 341.66342837 96.7825709 341.36048097 99.0625 341.5625 C100.44115234 341.68818359 100.44115234 341.68818359 101.84765625 341.81640625 C102.55792969 341.87699219 103.26820313 341.93757813 104 342 C104.0825 342.94875 104.165 343.8975 104.25 344.875 C104.4975 345.90625 104.745 346.9375 105 348 C105.6496875 348.28875 106.299375 348.5775 106.96875 348.875 C109 350 109 350 109.828125 352.3828125 C110.03695312 353.74019531 110.03695312 353.74019531 110.25 355.125 C110.47429687 356.49011719 110.47429687 356.49011719 110.703125 357.8828125 C110.80109375 358.58148438 110.8990625 359.28015625 111 360 C112.32 360 113.64 360 115 360 C116.34164079 360.2981424 117.67851173 360.62243192 119 361 C119.33 362.65 119.66 364.3 120 366 C123.07322544 366.91058531 125.80097361 367.08886184 129 367 C129.33 368.32 129.66 369.64 130 371 C128.68 371.66 127.36 372.32 126 373 C126 373.99 126 374.98 126 376 C126.73605469 376.03738281 127.47210938 376.07476562 128.23046875 376.11328125 C138.2979286 376.79153812 138.2979286 376.79153812 142 380 C142.33 380.99 142.66 381.98 143 383 C143.92039062 383.45246094 143.92039062 383.45246094 144.859375 383.9140625 C147.57077672 385.28955461 148.58857898 386.84930441 150.25 389.375 C150.77078125 390.14585937 151.2915625 390.91671875 151.828125 391.7109375 C153 394 153 394 153 398 C153.66 398 154.32 398 155 398 C155.165 398.763125 155.33 399.52625 155.5 400.3125 C157.69479908 404.24484835 160.8222367 404.80496538 165 406 C165 406.66 165 407.32 165 408 C165.94875 408.103125 166.8975 408.20625 167.875 408.3125 C171 409 171 409 173 412 C173.3125 414.5625 173.3125 414.5625 173 417 C172.01 417.66 171.02 418.32 170 419 C171.70625501 421.78388975 172.47626739 422.85384206 175.6875 423.75 C176.450625 423.8325 177.21375 423.915 178 424 C178.37125 425.4540625 178.37125 425.4540625 178.75 426.9375 C179.1625 427.948125 179.575 428.95875 180 430 C181.89179203 430.6814823 181.89179203 430.6814823 184 431 C186.3125 432.8125 186.3125 432.8125 188 435 C187.6875 437.0625 187.6875 437.0625 187 439 C188.11179163 442.33537489 189.47411298 443.63707344 192 446 C191.67 446.66 191.34 447.32 191 448 C191.99 448 192.98 448 194 448 C194.33 448.99 194.66 449.98 195 451 C190.25085193 454.5314178 185.64576294 456.31164803 180 458 C179.01 458.33 178.02 458.66 177 459 C174.66972593 459.14564213 172.33463857 459.22081702 170 459.25 C168.7625 459.27578125 167.525 459.3015625 166.25 459.328125 C163 459 163 459 161.0625 457.609375 C160 456 160 456 160 454 C158.68 454 157.36 454 156 454 C156 453.01 156 452.02 156 451 C155.01 451 154.02 451 153 451 C153 450.34 153 449.68 153 449 C151.35 448.67 149.7 448.34 148 448 C148.33 446.35 148.66 444.7 149 443 C148.319375 443.04125 147.63875 443.0825 146.9375 443.125 C143.40075832 442.97450035 140.36676967 442.05624147 137 441 C137 440.01 137 439.02 137 438 C136.43539063 437.76796875 135.87078125 437.5359375 135.2890625 437.296875 C132.41858629 435.67059838 130.58843971 433.69292677 128.375 431.25 C127.59898437 430.40953125 126.82296875 429.5690625 126.0234375 428.703125 C123.89303878 425.85710972 123.04878405 423.36484884 122 420 C120.09821215 419.39938767 120.09821215 419.39938767 118 419 C115.91761688 416.73387719 114.30722998 414.69638796 113.0625 411.875 C112.07754587 409.74814472 112.07754587 409.74814472 109.4375 408.625 C107 407 107 407 106.1875 403.8125 C106.125625 402.884375 106.06375 401.95625 106 401 C105.4225 401.20625 104.845 401.4125 104.25 401.625 C102 402 102 402 99.8125 401.375 C98 400 98 400 97.5625 397.5625 C97.376875 396.716875 97.19125 395.87125 97 395 C95.34634594 393.97862543 93.67623498 392.98387706 92 392 C90.19943356 389.9363371 88.50629899 387.82074515 86.84375 385.64453125 C85.07074357 383.73317731 85.07074357 383.73317731 82.28125 383.76171875 C81.5284375 383.84035156 80.775625 383.91898437 80 384 C78.875 380.25 78.875 380.25 80 378 C82.0625 377.375 82.0625 377.375 84 377 C81.92446352 376.4465236 80.15634036 376 78 376 C77.67 374.35 77.34 372.7 77 371 C77.66 371 78.32 371 79 371 C78.34 370.34 77.68 369.68 77 369 C75.35 369.66 73.7 370.32 72 371 C68.04 367.535 68.04 367.535 64 364 C65.32 362.68 66.64 361.36 68 360 C67.34 360 66.68 360 66 360 C66.33 358.68 66.66 357.36 67 356 C65.4221875 356.0928125 65.4221875 356.0928125 63.8125 356.1875 C59.75053953 355.98773145 58.34883812 355.08171018 55 353 C52.85744207 353.38932856 52.85744207 353.38932856 51 354 C48.4345406 351.4345406 48.45953913 349.52313332 48 346 C46.02 346.33 44.04 346.66 42 347 C42 346.34 42 345.68 42 345 C40.35 344.67 38.7 344.34 37 344 C36.67 342.68 36.34 341.36 36 340 C34.68 339.67 33.36 339.34 32 339 C31.67 337.68 31.34 336.36 31 335 C32.65 334.67 34.3 334.34 36 334 C34.68 334 33.36 334 32 334 C31.01 333.67 30.02 333.34 29 333 C28.67 330.36 28.34 327.72 28 325 C26.9275 325.33 25.855 325.66 24.75 326 C21 327 21 327 17 327 C17.47474775 329.14681531 17.95491749 331.29243228 18.4375 333.4375 C18.83775391 335.22994141 18.83775391 335.22994141 19.24609375 337.05859375 C19.70066748 339.8704686 19.70066748 339.8704686 21 341 C20.979375 341.804375 20.95875 342.60875 20.9375 343.4375 C20.70941092 346.16918103 20.70941092 346.16918103 23 348 C22.65656566 355.21212121 22.65656566 355.21212121 20.4375 357.875 C19.963125 358.24625 19.48875 358.6175 19 359 C19 359.66 19 360.32 19 361 C19.66 361.33 20.32 361.66 21 362 C20.47916667 363.953125 19.95833333 365.90625 19.4375 367.859375 C18.86650651 370.28901861 18.86650651 370.28901861 19 374 C19.66 374.33 20.32 374.66 21 375 C21.59355614 377.64860427 21.74209269 380.29197322 22 383 C23.65 383 25.3 383 27 383 C27.96070434 385.88211302 28.10581883 387.69850044 28.0625 390.6875 C28.05347656 391.49574219 28.04445313 392.30398438 28.03515625 393.13671875 C28.01775391 394.05904297 28.01775391 394.05904297 28 395 C25.36 395.99 22.72 396.98 20 398 C20.825 398.433125 21.65 398.86625 22.5 399.3125 C23.325 399.869375 24.15 400.42625 25 401 C25 401.99 25 402.98 25 404 C23.02 404.33 21.04 404.66 19 405 C19.33 405.99 19.66 406.98 20 408 C21.2375 408.4021875 21.2375 408.4021875 22.5 408.8125 C23.325 409.204375 24.15 409.59625 25 410 C25.8125 413.125 25.8125 413.125 26 416 C25.34 416.33 24.68 416.66 24 417 C24.495 417.37125 24.99 417.7425 25.5 418.125 C27 420 27 420 27.375 422.8125 C26.93941197 426.51499823 26.03260627 428.87849752 24 432 C21.8125 432.875 21.8125 432.875 20 433 C20 434.32 20 435.64 20 437 C20.66 437 21.32 437 22 437 C21.67 438.98 21.34 440.96 21 443 C20.01 443.33 19.02 443.66 18 444 C19.25740814 449.7578136 19.25740814 449.7578136 23 454 C23.86625 454.474375 24.7325 454.94875 25.625 455.4375 C28 457 28 457 28.875 458.9375 C29 461 29 461 28.5 462.9375 C27.86819239 465.5437064 28.35668389 467.42673558 29 470 C28.34 470.33 27.68 470.66 27 471 C26.67 471.99 26.34 472.98 26 474 C22.7 474.66 19.4 475.32 16 476 C17.08552366 477.31262571 17.08552366 477.31262571 19.72265625 477.09765625 C20.82480469 477.08605469 21.92695313 477.07445312 23.0625 477.0625 C24.71958984 477.04896484 24.71958984 477.04896484 26.41015625 477.03515625 C27.26480469 477.02355469 28.11945313 477.01195312 29 477 C29.51797891 489.75762873 29.51797891 489.75762873 27.4375 493.9375 C25.3092289 498.47164277 26.4755797 501.42673909 28 506 C27.01 506.99 26.02 507.98 25 509 C25.66 511.31 26.32 513.62 27 516 C23.87186463 517.83198669 21.60914709 518.24801923 18 518.1875 C17.154375 518.18105469 16.30875 518.17460938 15.4375 518.16796875 C13.15915328 518.01096729 11.2011336 517.57302238 9 517 C7.00036972 516.96154557 4.99948367 516.95455719 3 517 C3.33 518.32 3.66 519.64 4 521 C0.10220226 522.18628627 -1.87757694 522.506741 -5.65625 520.80078125 C-12.68501021 516.62997957 -12.68501021 516.62997957 -14 514 C-16.30965848 512.94647157 -18.6429774 511.94280904 -21 511 C-21 509.68 -21 508.36 -21 507 C-19.02 507 -17.04 507 -15 507 C-14.67 505.35 -14.34 503.7 -14 502 C-14.99 502 -15.98 502 -17 502 C-17 501.34 -17 500.68 -17 500 C-17.66 500 -18.32 500 -19 500 C-20.84651134 496.88401212 -21.38079379 494.61754103 -21 491 C-19 489 -19 489 -16.375 488.875 C-15.59125 488.91625 -14.8075 488.9575 -14 489 C-14 488.01 -14 487.02 -14 486 C-15.175625 486.061875 -15.175625 486.061875 -16.375 486.125 C-19 486 -19 486 -21 484 C-20.76924522 481.27709362 -20.45170277 478.68593151 -20 476 C-19.05360378 470.44241901 -19.05360378 470.44241901 -20 465 C-19.67 464.67 -19.34 464.34 -19 464 C-19.61875 463.67 -20.2375 463.34 -20.875 463 C-23.89599455 460.15671101 -24.27888727 456.9252322 -25 453 C-25.2475 451.906875 -25.495 450.81375 -25.75 449.6875 C-26 447 -26 447 -24 444 C-17.7 442.65 -17.7 442.65 -15 444 C-14.40644386 446.64860427 -14.25790731 449.29197322 -14 452 C-11.36 452 -8.72 452 -6 452 C-5.94250443 449.08369887 -5.94250443 449.08369887 -7 446 C-10.454817 444.26931729 -10.454817 444.26931729 -14 443 C-14.33 442.01 -14.66 441.02 -15 440 C-18.3 440.33 -21.6 440.66 -25 441 C-27.29593835 436.40812331 -27.0233563 435.49032011 -25.71484375 430.90625 C-24.8427102 428.58056052 -23.67555201 426.82787492 -22 425 C-22.350625 424.484375 -22.70125 423.96875 -23.0625 423.4375 C-24.3615641 420.05993333 -23.67217681 417.49531943 -23 414 C-21.35 413.34 -19.7 412.68 -18 412 C-18.88836775 409.74269517 -18.88836775 409.74269517 -21.5625 408.625 C-22.366875 408.08875 -23.17125 407.5525 -24 407 C-24 403.72724974 -23.70074844 401.153368 -23 398 C-21.68 397.67 -20.36 397.34 -19 397 C-21.97 396.34 -24.94 395.68 -28 395 C-27.21824485 390.15311808 -25.60155722 385.6233633 -24 381 C-25.65 380.67 -27.3 380.34 -29 380 C-29.12375 379.443125 -29.2475 378.88625 -29.375 378.3125 C-29.96691862 375.90746492 -29.96691862 375.90746492 -31.125 373.375 C-31.558125 372.199375 -31.558125 372.199375 -32 371 C-31.67 370.34 -31.34 369.68 -31 369 C-31 367.68 -31 366.36 -31 365 C-31 361 -31 361 -30 359 C-28.88625 359.061875 -27.7725 359.12375 -26.625 359.1875 C-24.830625 359.0946875 -24.830625 359.0946875 -23 359 C-22.34 358.01 -21.68 357.02 -21 356 C-23.31 356 -25.62 356 -28 356 C-28 355.01 -28 354.02 -28 353 C-26.25 351.39453125 -26.25 351.39453125 -24 349.8125 C-23.2575 349.28269531 -22.515 348.75289063 -21.75 348.20703125 C-21.1725 347.80871094 -20.595 347.41039062 -20 347 C-20.33 345.35 -20.66 343.7 -21 342 C-21.969375 342.020625 -22.93875 342.04125 -23.9375 342.0625 C-27 342 -27 342 -28 341 C-28.14115161 338.32941149 -28.04247107 335.67567762 -28 333 C-29.98 333.33 -31.96 333.66 -34 334 C-34.33 333.34 -34.66 332.68 -35 332 C-35.66 332 -36.32 332 -37 332 C-37.0825 332.763125 -37.165 333.52625 -37.25 334.3125 C-38.14615794 337.52373261 -39.21611025 338.29374499 -42 340 C-41.34 341.32 -40.68 342.64 -40 344 C-40.969375 344.7425 -41.93875 345.485 -42.9375 346.25 C-45.42477267 348.18732306 -45.42477267 348.18732306 -46.4375 351.0625 C-47 353 -47 353 -50.4375 354.9375 C-51.07042969 355.26234375 -51.70335937 355.5871875 -52.35546875 355.921875 C-54.71303502 357.46745289 -55.15295077 359.38826488 -56 362 C-56.99 362.33 -57.98 362.66 -59 363 C-59.73323796 365.01508358 -59.73323796 365.01508358 -60 367 C-61.32 367 -62.64 367 -64 367 C-64 367.99 -64 368.98 -64 370 C-64.99 370 -65.98 370 -67 370 C-67.0825 370.721875 -67.165 371.44375 -67.25 372.1875 C-68.67550976 377.53316159 -72.96207074 381.37621733 -77 385 C-77.99 385 -78.98 385 -80 385 C-80.33 386.32 -80.66 387.64 -81 389 C-85.75 390 -85.75 390 -88 390 C-89.4682645 391.2724959 -90.93633965 392.54521311 -92.40234375 393.8203125 C-94.50642798 395.37393949 -96.41972083 395.77232831 -99 396 C-99 397.98 -99 399.96 -99 402 C-100.36125 402.433125 -100.36125 402.433125 -101.75 402.875 C-105.9389795 405.61394813 -106.52667093 408.15906164 -107.9453125 412.8203125 C-109 415 -109 415 -111.1171875 415.8046875 C-111.73851562 415.86914062 -112.35984375 415.93359375 -113 416 C-113.33 417.32 -113.66 418.64 -114 420 C-115.32 420.33 -116.64 420.66 -118 421 C-118 421.99 -118 422.98 -118 424 C-118.99 424 -119.98 424 -121 424 C-121 425.65 -121 427.3 -121 429 C-121.99 429.33 -122.98 429.66 -124 430 C-124.66 430.99 -125.32 431.98 -126 433 C-127.9453125 433.94921875 -127.9453125 433.94921875 -130.125 434.6875 C-130.84945312 434.93886719 -131.57390625 435.19023437 -132.3203125 435.44921875 C-133.15175781 435.72185547 -133.15175781 435.72185547 -134 436 C-133.34 436.66 -132.68 437.32 -132 438 C-131.875 440.25 -131.875 440.25 -133 443 C-139.32470588 449 -139.32470588 449 -144 449 C-144 449.721875 -144 450.44375 -144 451.1875 C-145.36767687 455.03409121 -147.5758579 455.84831748 -151.08984375 457.69140625 C-153.37631694 459.25780404 -154.07664556 460.40397206 -155 463 C-155 464.32 -155 465.64 -155 467 C-161.07877934 470.24201565 -166.18401613 470.33278764 -173 470 C-173.33 469.34 -173.66 468.68 -174 468 C-176.64 468.33 -179.28 468.66 -182 469 C-183.42258812 465.17679443 -184.24042276 462.08718695 -184 458 C-183.01 458 -182.02 458 -181 458 C-181 457.34 -181 456.68 -181 456 C-181.74765625 456.02320313 -182.4953125 456.04640625 -183.265625 456.0703125 C-184.25046875 456.08835937 -185.2353125 456.10640625 -186.25 456.125 C-187.22453125 456.14820313 -188.1990625 456.17140625 -189.203125 456.1953125 C-192.0196498 455.99862781 -193.60949036 455.44568916 -196 454 C-196 452.68 -196 451.36 -196 450 C-194.1128125 449.9690625 -194.1128125 449.9690625 -192.1875 449.9375 C-191.47980469 449.92589844 -190.77210938 449.91429687 -190.04296875 449.90234375 C-188 450 -188 450 -185 451 C-186.89044704 448.89950329 -188.64082463 447.59458034 -191.0625 446.0625 C-195.12440191 443.21052632 -195.12440191 443.21052632 -196 440 C-195.47368421 435.47368421 -195.47368421 435.47368421 -194 434 C-185.61832061 433.58778626 -185.61832061 433.58778626 -182 436 C-182 435.01 -182 434.02 -182 433 C-184.31 432.34 -186.62 431.68 -189 431 C-189 430.01 -189 429.02 -189 428 C-187.824375 427.9071875 -187.824375 427.9071875 -186.625 427.8125 C-185.75875 427.544375 -184.8925 427.27625 -184 427 C-182.62533375 424.52363988 -182.62533375 424.52363988 -182 422 C-181.34 422 -180.68 422 -180 422 C-179.731875 421.0925 -179.46375 420.185 -179.1875 419.25 C-177.29226361 414.06303725 -177.29226361 414.06303725 -175 412 C-173.09765625 411.67578125 -173.09765625 411.67578125 -170.9375 411.5 C-169.638125 411.335 -168.33875 411.17 -167 411 C-165.90833725 409.06669397 -165.90833725 409.06669397 -165 407 C-163.2675 406.5978125 -163.2675 406.5978125 -161.5 406.1875 C-160.345 405.795625 -159.19 405.40375 -158 405 C-156.45913678 401.48599332 -156.45913678 401.48599332 -156 398 C-155.34 398 -154.68 398 -154 398 C-154.061875 397.236875 -154.12375 396.47375 -154.1875 395.6875 C-154 393 -154 393 -153 391.25 C-149.83384111 389.27115069 -146.69706448 389.30303807 -143 389 C-143.5878125 387.88625 -143.5878125 387.88625 -144.1875 386.75 C-145 384 -145 384 -144.1875 381.75 C-141.25779808 379.40623846 -138.83185997 379.39019183 -135.15625 379.17578125 C-132.81676043 379.07119769 -132.81676043 379.07119769 -130 378 C-130 377.01 -130 376.02 -130 375 C-130.99 374.34 -131.98 373.68 -133 373 C-133 372.01 -133 371.02 -133 370 C-129 368.66666667 -125 367.33333333 -121 366 C-121 365.34 -121 364.68 -121 364 C-120.36191406 363.79503906 -119.72382813 363.59007812 -119.06640625 363.37890625 C-118.24011719 363.10949219 -117.41382813 362.84007812 -116.5625 362.5625 C-115.73878906 362.29566406 -114.91507813 362.02882813 -114.06640625 361.75390625 C-112.03780412 361.17844506 -112.03780412 361.17844506 -111 360 C-112.32 360 -113.64 360 -115 360 C-115.33 357.69 -115.66 355.38 -116 353 C-111.71 351.35 -107.42 349.7 -103 348 C-103.66 347.34 -104.32 346.68 -105 346 C-104.625 343.875 -104.625 343.875 -104 342 C-103.34 342 -102.68 342 -102 342 C-102.04125 341.21625 -102.0825 340.4325 -102.125 339.625 C-102 337 -102 337 -100 335 C-99.01 335 -98.02 335 -97 335 C-96.95746094 334.41992188 -96.91492188 333.83984375 -96.87109375 333.2421875 C-96.3284452 330.27961974 -95.72469688 328.50162401 -94 326 C-89.10845196 323.27329248 -82.70066302 320 -77 320 C-77.08701172 319.00419922 -77.08701172 319.00419922 -77.17578125 317.98828125 C-77.54992764 310.66570188 -77.54992764 310.66570188 -74.625 307.125 C-73.75875 306.42375 -72.8925 305.7225 -72 305 C-70.31763469 302.27617044 -70 301.26115629 -70 298 C-67.69 297.67 -65.38 297.34 -63 297 C-63 296.34 -63 295.68 -63 295 C-59.37 293.02 -55.74 291.04 -52 289 C-53.19238281 289.0721875 -54.38476562 289.144375 -55.61328125 289.21875 C-57.17968471 289.31254661 -58.74609111 289.40629405 -60.3125 289.5 C-61.09818359 289.54769531 -61.88386719 289.59539062 -62.69335938 289.64453125 C-63.45068359 289.68964844 -64.20800781 289.73476563 -64.98828125 289.78125 C-65.68477783 289.82314453 -66.38127441 289.86503906 -67.09887695 289.90820312 C-68.73096966 289.98700971 -70.36600579 290 -72 290 C-72.04125 290.61875 -72.0825 291.2375 -72.125 291.875 C-73 294 -73 294 -75.75 295.3125 C-79.77069591 296.16303183 -82.35124093 295.82437953 -86 294 C-88.37783105 294.08838461 -90.75345146 294.24346421 -93.125 294.4375 C-94.40632812 294.53933594 -95.68765625 294.64117187 -97.0078125 294.74609375 C-98.48894531 294.87177734 -98.48894531 294.87177734 -100 295 C-100.2165625 293.7934375 -100.2165625 293.7934375 -100.4375 292.5625 C-100.74135249 290.07896294 -100.74135249 290.07896294 -102 289 C-102.33 289.66 -102.66 290.32 -103 291 C-104.11375 291.309375 -105.2275 291.61875 -106.375 291.9375 C-109.89667431 292.64284226 -109.89667431 292.64284226 -111.4375 294.5 C-114.07892268 297.03576578 -117.47625185 297.24903728 -121 298 C-121 297.34 -121 296.68 -121 296 C-122.98 296.33 -124.96 296.66 -127 297 C-127 295.68 -127 294.36 -127 293 C-126.01 293 -125.02 293 -124 293 C-124.99 291.515 -124.99 291.515 -126 290 C-131.01791184 291.09440416 -131.01791184 291.09440416 -135.0625 294.0625 C-137.62275775 296.62275775 -139.43749143 296.77734321 -143 297 C-145.125 296.625 -145.125 296.625 -147 296 C-147.680625 295.938125 -148.36125 295.87625 -149.0625 295.8125 C-152.115446 294.53223232 -152.64779744 291.89210463 -154 289 C-155.28583984 289.433125 -155.28583984 289.433125 -156.59765625 289.875 C-162.6632999 291.84445363 -167.59972286 293.12075995 -174 293 C-175.53106481 293.48994074 -177.05116925 294.01470374 -178.5625 294.5625 C-184.14729846 296.40694189 -189.11905729 295.8801066 -194.8984375 295.2265625 C-197.69214244 295.02248834 -199.38753162 295.13874669 -202 296 C-205.0625 296.75 -205.0625 296.75 -208 297 C-208.4125 296.50113281 -208.825 296.00226563 -209.25 295.48828125 C-211.02528381 293.65334445 -211.02528381 293.65334445 -214.21484375 293.99609375 C-215.44332031 294.14175781 -216.67179687 294.28742188 -217.9375 294.4375 C-225.7875503 295.35375193 -225.7875503 295.35375193 -229 293 C-230.25 290.375 -230.25 290.375 -231 288 C-231.99 288.185625 -232.98 288.37125 -234 288.5625 C-238.32986022 289.14098335 -241.7190308 289.03571835 -246 288 C-248.28578146 286.16143665 -249.37897083 284.53285807 -251 282 C-251 281.01 -251 280.02 -251 279 C-251.66 279 -252.32 279 -253 279 C-254.1446875 277.5459375 -254.1446875 277.5459375 -255.3125 276.0625 C-257.21372436 273.65767752 -257.76817935 273.07212198 -260.8125 272.125 C-261.534375 272.08375 -262.25625 272.0425 -263 272 C-262.53199289 267.94393835 -262.12046792 264.53411321 -260 261 C-260.99 259.515 -260.99 259.515 -262 258 C-262.125 255.3125 -262.125 255.3125 -262 253 C-260.54263913 252.80508548 -259.08405407 252.61930642 -257.625 252.4375 C-256.81289063 252.33308594 -256.00078125 252.22867188 -255.1640625 252.12109375 C-253 252 -253 252 -251 253 C-248.36610706 252.60827785 -245.79376523 252.15414379 -243.1875 251.625 C-242.11918945 251.41617188 -242.11918945 251.41617188 -241.02929688 251.203125 C-238.0930539 250.62728456 -235.16193133 250.03527217 -232.23828125 249.3984375 C-230 249 -230 249 -226 249 C-225.67 248.67 -225.34 248.34 -225 248 C-223.23055417 247.9268824 -221.45833007 247.91639077 -219.6875 247.9375 C-218.72199219 247.94652344 -217.75648438 247.95554688 -216.76171875 247.96484375 C-215.85035156 247.97644531 -214.93898437 247.98804688 -214 248 C-210.15094042 248.23267626 -210.15094042 248.23267626 -207.3359375 247.0078125 C-203.01408145 245.70214639 -199.10730068 245.78206554 -194.625 245.875 C-193.79355469 245.88402344 -192.96210938 245.89304688 -192.10546875 245.90234375 C-190.07018663 245.9257378 -188.03505436 245.96160275 -186 246 C-186.33984375 247.890625 -186.33984375 247.890625 -187 250 C-189.5625 251.75 -189.5625 251.75 -192 253 C-190.02 253.33 -188.04 253.66 -186 254 C-185.67 252.35 -185.34 250.7 -185 249 C-182.75 248.3125 -182.75 248.3125 -180 248 C-178.65210653 248.98028616 -177.31787285 249.97971135 -176 251 C-173.79199472 250.78282648 -173.79199472 250.78282648 -172 250 C-171.67 248.35 -171.34 246.7 -171 245 C-165.91913204 244.15318867 -161.15171623 243.90961901 -156 244 C-155.505 246.475 -155.505 246.475 -155 249 C-153.54207116 249.05399736 -152.08357288 249.09279177 -150.625 249.125 C-149.81289062 249.14820313 -149.00078125 249.17140625 -148.1640625 249.1953125 C-145.78657757 249.21370051 -145.78657757 249.21370051 -144 247 C-141.72265625 246.734375 -141.72265625 246.734375 -139.0625 246.75 C-138.18722656 246.74484375 -137.31195313 246.7396875 -136.41015625 246.734375 C-134 247 -134 247 -131 249 C-130.40574219 248.34773437 -129.81148437 247.69546875 -129.19921875 247.0234375 C-124.49018251 244.0450727 -120.26513905 244.4912361 -114.8125 244.625 C-113.2975293 244.62693359 -113.2975293 244.62693359 -111.75195312 244.62890625 C-104.28114421 244.71885579 -104.28114421 244.71885579 -102 247 C-101.67 246.505 -101.34 246.01 -101 245.5 C-98.40544208 243.55408156 -96.21197129 243.53100631 -93.02734375 243.62890625 C-91 244 -91 244 -88.25 246 C-83.32038198 249.03361109 -78.64800852 248.63884929 -73 248 C-70.56373418 247.32691755 -68.25005266 246.50821106 -65.88671875 245.6171875 C-63.17638896 244.73057858 -61.64255442 244.95688641 -59 246 C-57.8082095 246.72213274 -56.62100882 247.45187295 -55.4375 248.1875 C-54.303125 248.785625 -53.16875 249.38375 -52 250 C-49.79702604 249.19336624 -49.79702604 249.19336624 -48 248 C-48.56589844 247.61328125 -49.13179687 247.2265625 -49.71484375 246.828125 C-50.44832031 246.30734375 -51.18179688 245.7865625 -51.9375 245.25 C-52.66839844 244.73953125 -53.39929688 244.2290625 -54.15234375 243.703125 C-56.20805399 241.80822085 -56.62669176 240.72574271 -57 238 C-57.61875 237.9175 -58.2375 237.835 -58.875 237.75 C-61 237 -61 237 -62.3125 235.0625 C-62.539375 234.381875 -62.76625 233.70125 -63 233 C-62.67 232.34 -62.34 231.68 -62 231 C-65.41021743 231.78697325 -68.68885166 232.87119943 -72 234 C-72.28875 233.030625 -72.5775 232.06125 -72.875 231.0625 C-73.64214682 227.89335797 -73.64214682 227.89335797 -76 227 C-76 226.34 -76 225.68 -76 225 C-77.32 225 -78.64 225 -80 225 C-80 224.34 -80 223.68 -80 223 C-81.32 222.34 -82.64 221.68 -84 221 C-83.67 220.360625 -83.34 219.72125 -83 219.0625 C-81.92728775 217.23205433 -81.92728775 217.23205433 -82 216 C-82.78375 215.855625 -83.5675 215.71125 -84.375 215.5625 C-87 215 -87 215 -89 214 C-89.433125 213.030625 -89.86625 212.06125 -90.3125 211.0625 C-91.72400184 207.82477341 -91.72400184 207.82477341 -94.6875 206.625 C-95.450625 206.41875 -96.21375 206.2125 -97 206 C-97 204.68 -97 203.36 -97 202 C-96.34 202 -95.68 202 -95 202 C-95.99 198.535 -95.99 198.535 -97 195 C-97.763125 195.185625 -98.52625 195.37125 -99.3125 195.5625 C-102 196 -102 196 -105 195 C-106.33106622 194.65772583 -107.66400079 194.32248257 -109 194 C-108.67 192.35 -108.34 190.7 -108 189 C-108.99 188.67 -109.98 188.34 -111 188 C-111 187.01 -111 186.02 -111 185 C-113.97 184.01 -113.97 184.01 -117 183 C-117 182.34 -117 181.68 -117 181 C-117.598125 180.731875 -118.19625 180.46375 -118.8125 180.1875 C-121.82705837 178.55102546 -123.54369649 177.03428795 -124.9375 173.875 C-125.288125 173.25625 -125.63875 172.6375 -126 172 C-126.66 171.835 -127.32 171.67 -128 171.5 C-130 171 -130 171 -131.25 169.125 C-132 167 -132 167 -132 164 C-135.73486879 163.4254048 -139.21293268 163 -143 163 C-143.45375 162.030625 -143.9075 161.06125 -144.375 160.0625 C-145.65786221 156.92920418 -145.65786221 156.92920418 -148 156 C-148 154.68 -148 153.36 -148 152 C-148.7425 152.12375 -149.485 152.2475 -150.25 152.375 C-151.61125 152.189375 -151.61125 152.189375 -153 152 C-155.125 149.0625 -155.125 149.0625 -157 146 C-157.99 145.67 -158.98 145.34 -160 145 C-160 144.34 -160 143.68 -160 143 C-161.32 142.67 -162.64 142.34 -164 142 C-164.495 139.525 -164.495 139.525 -165 137 C-165.66 137 -166.32 137 -167 137 C-167.61875 136.360625 -168.2375 135.72125 -168.875 135.0625 C-170.76511692 132.8449516 -170.76511692 132.8449516 -173.0625 132.625 C-173.701875 132.41875 -174.34125 132.2125 -175 132 C-175.45375 131.05125 -175.9075 130.1025 -176.375 129.125 C-177.74358389 125.74589841 -177.74358389 125.74589841 -181.125 124.4375 C-182.07375 123.963125 -183.0225 123.48875 -184 123 C-184.875 120.3125 -184.875 120.3125 -185 118 C-185.66 118 -186.32 118 -187 118 C-190.91058106 113.48779109 -190.29469532 108.62104043 -190 103 C-191.32 103.33 -192.64 103.66 -194 104 C-196.98514628 99.89542386 -197.2954439 97.02254631 -197 92 C-193.535 91.505 -193.535 91.505 -190 91 C-190.33 89.68 -190.66 88.36 -191 87 C-189.68 86.34 -188.36 85.68 -187 85 C-187.0928125 83.88625 -187.0928125 83.88625 -187.1875 82.75 C-186.95308015 79.31184218 -186.59878194 78.28377807 -184 76 C-179.6375639 74.46323274 -175.45800207 73.32457505 -171 75 C-170.67 75.66 -170.34 76.32 -170 77 C-168.02111039 77.72693904 -166.02045442 78.39816251 -164 79 C-163.67 80.65 -163.34 82.3 -163 84 C-158.32798795 85.20568053 -153.78503708 85.09382426 -149 85 C-149 85.99 -149 86.98 -149 88 C-148.401875 88.061875 -147.80375 88.12375 -147.1875 88.1875 C-144.12856542 89.3236757 -143.44958901 91.17330142 -142 94 C-142.99 94.99 -143.98 95.98 -145 97 C-143.906875 96.95875 -142.81375 96.9175 -141.6875 96.875 C-138 97 -138 97 -135 99 C-135 99.99 -135 100.98 -135 102 C-134.0409375 102.37125 -134.0409375 102.37125 -133.0625 102.75 C-132.0415625 103.36875 -132.0415625 103.36875 -131 104 C-130.7834375 104.9590625 -130.7834375 104.9590625 -130.5625 105.9375 C-130.15815922 108.29800914 -130.15815922 108.29800914 -127.4375 109.75 C-126.633125 110.1625 -125.82875 110.575 -125 111 C-125.33 112.32 -125.66 113.64 -126 115 C-123.80583735 116.70657095 -121.84570907 118.07176323 -119.3125 119.25 C-117 121 -117 121 -116.1875 124.375 C-116.03812523 127.26291228 -115.91243074 130.11021429 -116 133 C-115.278125 132.649375 -114.55625 132.29875 -113.8125 131.9375 C-110.6877295 130.89590983 -109.11838004 131.10903428 -106 132 C-104.57741188 135.82320557 -103.75957724 138.91281305 -104 143 C-101.80889411 143.06021717 -101.80889411 143.06021717 -98.9375 142.4375 C-97.968125 142.293125 -96.99875 142.14875 -96 142 C-95 143 -95 143 -94.8125 145.875 C-95 149 -95 149 -97 152 C-95.741875 151.896875 -94.48375 151.79375 -93.1875 151.6875 C-90.984375 151.68359375 -90.984375 151.68359375 -89 152 C-86.77541646 154.4268184 -86 155.82802288 -86 159.125 C-87 161 -87 161 -92 164 C-87.38 164 -82.76 164 -78 164 C-76.92264994 167.23205018 -77.07359577 168.33577435 -77.8125 171.5625 C-77.98394531 172.34753906 -78.15539062 173.13257813 -78.33203125 173.94140625 C-79 176 -79 176 -81 178 C-77.61067427 180.23050771 -77.61067427 180.23050771 -74 182 C-71.84982472 181.25827123 -71.84982472 181.25827123 -70 180 C-67.25 180.375 -67.25 180.375 -65 181 C-65 181.66 -65 182.32 -65 183 C-64.34 183 -63.68 183 -63 183 C-63 183.99 -63 184.98 -63 186 C-62.278125 185.938125 -61.55625 185.87625 -60.8125 185.8125 C-57.43800685 186.03746621 -55.69406089 186.99869763 -53 189 C-53 189.66 -53 190.32 -53 191 C-52.01 191 -51.02 191 -50 191 C-49.67 192.65 -49.34 194.3 -49 196 C-48.34 196 -47.68 196 -47 196 C-46.34 196.66 -45.68 197.32 -45 198 C-42.34462628 198.56520003 -39.70855287 198.73788198 -37 199 C-36.79375 199.721875 -36.5875 200.44375 -36.375 201.1875 C-34.55763992 204.90482744 -32.39322695 206.67131484 -29 209 C-26.24598049 209.42130907 -26.24598049 209.42130907 -24 209 C-24.33 207.68 -24.66 206.36 -25 205 C-23.68 205 -22.36 205 -21 205 C-21.33 203.68 -21.66 202.36 -22 201 C-25.465 201.99 -25.465 201.99 -29 203 C-29.6875 201.3125 -29.6875 201.3125 -30 199 C-28.75 196.25 -28.75 196.25 -27 194 C-26.01 194 -25.02 194 -24 194 C-23.01 191.03 -23.01 191.03 -22 188 C-22.99 188 -23.98 188 -25 188 C-24.34 182.39 -23.68 176.78 -23 171 C-21.68 170.67 -20.36 170.34 -19 170 C-19.495 169.29875 -19.99 168.5975 -20.5 167.875 C-22.21434253 164.58917682 -22.40616229 162.65546065 -22 159 C-20 157 -20 157 -16.875 156.875 C-15.92625 156.91625 -14.9775 156.9575 -14 157 C-14 155.68 -14 154.36 -14 153 C-17.96 152.67 -21.92 152.34 -26 152 C-23.86956522 141.34782609 -23.86956522 141.34782609 -19.3125 138.0625 C-18.549375 137.711875 -17.78625 137.36125 -17 137 C-17.66 136.34 -18.32 135.68 -19 135 C-19.4140625 131.9609375 -19.4140625 131.9609375 -19.625 128.375 C-19.73714844 126.59222656 -19.73714844 126.59222656 -19.8515625 124.7734375 C-19.90054688 123.85820313 -19.94953125 122.94296875 -20 122 C-20.66 122 -21.32 122 -22 122 C-22 120.35 -22 118.7 -22 117 C-19.525 116.01 -19.525 116.01 -17 115 C-19.31944788 111.52082818 -21.26369964 110.70570234 -25 109 C-25 107.68 -25 106.36 -25 105 C-24.21625 104.9175 -23.4325 104.835 -22.625 104.75 C-19.85250896 104.27193661 -19.85250896 104.27193661 -18.6875 101.9375 C-18.3471875 100.9784375 -18.3471875 100.9784375 -18 100 C-18.99 100 -19.98 100 -21 100 C-21 96.37 -21 92.74 -21 89 C-18.525 88.505 -18.525 88.505 -16 88 C-15.67 85.69 -15.34 83.38 -15 81 C-15.804375 81.020625 -16.60875 81.04125 -17.4375 81.0625 C-20 81 -20 81 -21 80 C-21.27018165 74.68642763 -20.79239263 71.04110428 -19 66 C-18.66501699 63.33165034 -18.66501699 63.33165034 -19 61 C-19.66 60.34 -20.32 59.68 -21 59 C-21.59765625 57.08984375 -21.59765625 57.08984375 -22.0625 54.9375 C-22.52362496 52.1992487 -22.52362496 52.1992487 -24 50 C-24.17393839 46.78213975 -23.8532167 44.09291053 -23 41 C-23 40.34 -23 39.68 -23 39 C-23.99 38.67 -24.98 38.34 -26 38 C-25.79375 36.7625 -25.5875 35.525 -25.375 34.25 C-24.92040516 30.69419655 -25.27274636 29.14969781 -27 26 C-27.0777346 23.66796188 -27.08967728 21.33160941 -27 19 C-25.02 18.505 -25.02 18.505 -23 18 C-23.20625 17.236875 -23.4125 16.47375 -23.625 15.6875 C-24 13 -24 13 -22 10 C-19.79296875 8.8671875 -19.79296875 8.8671875 -17.1875 7.875 C-16.33542969 7.54242187 -15.48335937 7.20984375 -14.60546875 6.8671875 C-9.93864692 5.31391247 -5.9156317 5 -1 5 C-0.67 3.35 -0.34 1.7 0 0 Z M-16 26 C-15 28 -15 28 -15 28 Z M-147 107 C-147 107.99 -147 108.98 -147 110 C-146.34 109.67 -145.68 109.34 -145 109 C-145 108.34 -145 107.68 -145 107 C-145.66 107 -146.32 107 -147 107 Z M123 109 C123.33 110.65 123.66 112.3 124 114 C125.65 113.67 127.3 113.34 129 113 C127.60804085 110.2160817 125.84424221 110.02101003 123 109 Z M2 116 C2.99 117.485 2.99 117.485 4 119 C4.99 118.67 5.98 118.34 7 118 C6.67 117.34 6.34 116.68 6 116 C4.68 116 3.36 116 2 116 Z M2 123 C3.32 124.32 4.64 125.64 6 127 C6.66 126.67 7.32 126.34 8 126 C7.34 125.01 6.68 124.02 6 123 C4.68 123 3.36 123 2 123 Z M-106 160 C-105.67 160.99 -105.34 161.98 -105 163 C-105 162.01 -105 161.02 -105 160 C-105.33 160 -105.66 160 -106 160 Z M-106 164 C-106.66 165.32 -107.32 166.64 -108 168 C-107.34 168 -106.68 168 -106 168 C-105.67 166.68 -105.34 165.36 -105 164 C-105.33 164 -105.66 164 -106 164 Z M-103 169 C-103 170.98 -103 172.96 -103 175 C-102.34 174.34 -101.68 173.68 -101 173 C-101 171.68 -101 170.36 -101 169 C-101.66 169 -102.32 169 -103 169 Z M76 177 C76.66 177.66 77.32 178.32 78 179 C78.66 178.34 79.32 177.68 80 177 C78.68 177 77.36 177 76 177 Z M-93 181 C-92.34 181.66 -91.68 182.32 -91 183 C-90.67 182.34 -90.34 181.68 -90 181 C-90.99 181 -91.98 181 -93 181 Z M-7 198 C-6.67 198.66 -6.34 199.32 -6 200 C-5.34 200 -4.68 200 -4 200 C-4 199.34 -4 198.68 -4 198 C-4.99 198 -5.98 198 -7 198 Z M-48 208 C-49.0260734 209.31337396 -50.02727325 210.64664105 -51 212 C-49.90554162 212.86657116 -48.79902219 213.71792724 -47.6875 214.5625 C-47.07261719 215.03816406 -46.45773438 215.51382813 -45.82421875 216.00390625 C-44.92123047 216.49697266 -44.92123047 216.49697266 -44 217 C-43.01 216.67 -42.02 216.34 -41 216 C-41.99 215.34 -42.98 214.68 -44 214 C-45.06246527 212.03247172 -46.07137808 210.03412421 -47 208 C-47.33 208 -47.66 208 -48 208 Z M-22 212 C-22.67673447 215.40320934 -22.67673447 215.40320934 -23 219 C-22.34 219.66 -21.68 220.32 -21 221 C-20.01 221 -19.02 221 -18 221 C-18 221.66 -18 222.32 -18 223 C-16.35 222.67 -14.7 222.34 -13 222 C-12.67 220.68 -12.34 219.36 -12 218 C-15.13498292 216.14223235 -17.37471432 215.79859524 -21 216 C-21.33 214.68 -21.66 213.36 -22 212 Z M55 218 C54.01 218.495 54.01 218.495 53 219 C53 219.66 53 220.32 53 221 C54.32 220.67 55.64 220.34 57 220 C56.34 219.34 55.68 218.68 55 218 Z M22 222 C20.37168238 223.80961577 20.37168238 223.80961577 19 226 C19.33 226.99 19.66 227.98 20 229 C21.98 228.67 23.96 228.34 26 228 C26 227.34 26 226.68 26 226 C25.01 226 24.02 226 23 226 C22.67 224.68 22.34 223.36 22 222 Z M-19 223 C-20.09658936 226.28976808 -19.79953138 227.71303767 -19 231 C-18.67 231 -18.34 231 -18 231 C-18 228.36 -18 225.72 -18 223 C-18.33 223 -18.66 223 -19 223 Z M-8 226 C-8.66 227.32 -9.32 228.64 -10 230 C-9.01 229.67 -8.02 229.34 -7 229 C-7.33 228.01 -7.66 227.02 -8 226 Z M20 235 C19.34 236.32 18.68 237.64 18 239 C19.65 238.34 21.3 237.68 23 237 C22.67 236.34 22.34 235.68 22 235 C21.34 235 20.68 235 20 235 Z M-118 254 C-117.67 254.99 -117.34 255.98 -117 257 C-117 256.01 -117 255.02 -117 254 C-117.33 254 -117.66 254 -118 254 Z M221 255 C221.33 256.98 221.66 258.96 222 261 C224.97 261.495 224.97 261.495 228 262 C227.67 261.01 227.34 260.02 227 259 C226.34 259 225.68 259 225 259 C225 257.35 225 255.7 225 254 C222.9254644 253.8509288 222.9254644 253.8509288 221 255 Z M35.859375 257.14453125 C35.16328125 257.36496094 34.4671875 257.58539063 33.75 257.8125 C32.5125 258.204375 31.275 258.59625 30 259 C30 259.33 30 259.66 30 260 C33.96 260 37.92 260 42 260 C38.54537385 256.72931273 38.54537385 256.72931273 35.859375 257.14453125 Z M182 257 C181.01 257.66 180.02 258.32 179 259 C180.32 259 181.64 259 183 259 C182.67 258.34 182.34 257.68 182 257 Z M207 262 C207.33 262.99 207.66 263.98 208 265 C208.66 265.33 209.32 265.66 210 266 C210.99 267.485 210.99 267.485 212 269 C212.0825 268.38125 212.165 267.7625 212.25 267.125 C213 265 213 265 215.0625 263.75 C215.701875 263.5025 216.34125 263.255 217 263 C217 262.67 217 262.34 217 262 C213.7 262 210.4 262 207 262 Z M-133 263 C-133.33 263.66 -133.66 264.32 -134 265 C-133.34 265 -132.68 265 -132 265 C-132.33 264.34 -132.66 263.68 -133 263 Z M-106 263 C-106.33 263.66 -106.66 264.32 -107 265 C-106.34 265 -105.68 265 -105 265 C-105.33 264.34 -105.66 263.68 -106 263 Z M156 264 C154.70366379 265.06645115 154.70366379 265.06645115 154.9375 267.5625 C154.958125 268.366875 154.97875 269.17125 155 270 C155.66 269.34 156.32 268.68 157 268 C156.6814823 265.89179203 156.6814823 265.89179203 156 264 Z M-122 265 C-121.67 265.66 -121.34 266.32 -121 267 C-120.01 266.34 -119.02 265.68 -118 265 C-119.32 265 -120.64 265 -122 265 Z M185 265 C184.67 267.31 184.34 269.62 184 272 C186.64 272.99 189.28 273.98 192 275 C193.31223496 271.06329512 192.24296256 268.87511856 191 265 C189.02 265 187.04 265 185 265 Z M229 267 C229.99 268.485 229.99 268.485 231 270 C231 269.01 231 268.02 231 267 C230.34 267 229.68 267 229 267 Z M151 271 C152.98 271.99 152.98 271.99 155 273 C155 272.34 155 271.68 155 271 C153.68 271 152.36 271 151 271 Z M197 282 C196.67 282.99 196.34 283.98 196 285 C196.66 285 197.32 285 198 285 C197.67 284.01 197.34 283.02 197 282 Z M32 283 C32 283.66 32 284.32 32 285 C33.83284443 286.12516085 33.83284443 286.12516085 36 287 C36.99 286.67 37.98 286.34 39 286 C38.67 285.34 38.34 284.68 38 284 C34.97065509 283.34227572 34.97065509 283.34227572 32 283 Z M-67 284 C-66 286 -66 286 -66 286 Z M76 285 C76 286.32 76 287.64 76 289 C77.65 288.67 79.3 288.34 81 288 C80.360625 287.87625 79.72125 287.7525 79.0625 287.625 C78.381875 287.41875 77.70125 287.2125 77 287 C76.67 286.34 76.34 285.68 76 285 Z M-211 287 C-211 287.66 -211 288.32 -211 289 C-209.68 289 -208.36 289 -207 289 C-207.33 288.01 -207.66 287.02 -208 286 C-209.2236068 285.9254644 -209.2236068 285.9254644 -211 287 Z M42.25 286.25 C41.13625 286.62125 41.13625 286.62125 40 287 C40.99 287.33 41.98 287.66 43 288 C43.309375 288.66 43.61875 289.32 43.9375 290 C44.82027141 292.20605562 44.82027141 292.20605562 47.125 292.75 C47.74375 292.8325 48.3625 292.915 49 293 C49.3 289.93125 49.3 289.93125 47.3125 287.75 C45.1143678 285.67852223 45.1143678 285.67852223 42.25 286.25 Z M-144 292 C-143 294 -143 294 -143 294 Z M10 301 C10 302.65 10 304.3 10 306 C10.99 306 11.98 306 13 306 C13.33 305.34 13.66 304.68 14 304 C13.67 303.01 13.34 302.02 13 301 C12.01 301 11.02 301 10 301 Z M-17 305 C-17.23074219 305.55429687 -17.46148437 306.10859375 -17.69921875 306.6796875 C-20.41216992 312.70608496 -20.41216992 312.70608496 -23.625 314.3125 C-24.800625 314.6528125 -24.800625 314.6528125 -26 315 C-26.66 315.99 -27.32 316.98 -28 318 C-26.783125 317.690625 -25.56625 317.38125 -24.3125 317.0625 C-21.2217028 316.28842823 -18.13265666 315.58737312 -15 315 C-15.66 314.67 -16.32 314.34 -17 314 C-16.67 311.03 -16.34 308.06 -16 305 C-16.33 305 -16.66 305 -17 305 Z M13 312 C13 313.65 13 315.3 13 317 C13.66 315.68 14.32 314.36 15 313 C14.34 312.67 13.68 312.34 13 312 Z M-13 313 C-12 315 -12 315 -12 315 Z M-68 320 C-67.01 320.99 -66.02 321.98 -65 323 C-64.34 322.67 -63.68 322.34 -63 322 C-63.66 321.34 -64.32 320.68 -65 320 C-65.99 320 -66.98 320 -68 320 Z M-21 321 C-21.33 321.66 -21.66 322.32 -22 323 C-20.35 322.67 -18.7 322.34 -17 322 C-18.32 321.67 -19.64 321.34 -21 321 Z M-87 326 C-88.12516085 327.83284443 -88.12516085 327.83284443 -89 330 C-88.67 330.99 -88.34 331.98 -88 333 C-86.68 331.35 -85.36 329.7 -84 328 C-84.99 327.34 -85.98 326.68 -87 326 Z M-11 340 C-11 340.66 -11 341.32 -11 342 C-10.01 341.67 -9.02 341.34 -8 341 C-8.99 340.67 -9.98 340.34 -11 340 Z M-2 345 C-1.67 345.66 -1.34 346.32 -1 347 C-0.34 347 0.32 347 1 347 C1 346.34 1 345.68 1 345 C0.01 345 -0.98 345 -2 345 Z M107 363 C106.67 363.99 106.34 364.98 106 366 C107.32 366 108.64 366 110 366 C110 365.01 110 364.02 110 363 C109.01 363 108.02 363 107 363 Z M110 366 C110.66 366.66 111.32 367.32 112 368 C112 367.34 112 366.68 112 366 C111.34 366 110.68 366 110 366 Z M109 378 C109.33 378.66 109.66 379.32 110 380 C110.33 379.34 110.66 378.68 111 378 C110.34 378 109.68 378 109 378 Z M7 383 C8 385 8 385 8 385 Z M11 384 C12 387 12 387 12 387 Z M120 385 C119.34 386.32 118.68 387.64 118 389 C119.32 388.67 120.64 388.34 122 388 C122 387.01 122 386.02 122 385 C121.34 385 120.68 385 120 385 Z M13 386 C12.67 387.32 12.34 388.64 12 390 C12.99 390 13.98 390 15 390 C14.67 388.68 14.34 387.36 14 386 C13.67 386 13.34 386 13 386 Z M10 387 C11 389 11 389 11 389 Z M-141 390 C-141.88693303 392.04105639 -141.88693303 392.04105639 -142 394 C-140.9275 394 -139.855 394 -138.75 394 C-136.16666667 394 -133.58333333 394 -131 394 C-128.74934898 392.08333079 -128.74934898 392.08333079 -127 390 C-132.1116475 387.72815667 -135.95682322 387.2739585 -141 390 Z M-129 400 C-130.57035335 402.49409061 -131.0274945 403.70443416 -130.75 406.6875 C-130.37875 407.8321875 -130.37875 407.8321875 -130 409 C-129.34 409.33 -128.68 409.66 -128 410 C-127.01 407.36 -126.02 404.72 -125 402 C-126.32 401.34 -127.64 400.68 -129 400 Z M12 404 C11.01 404.99 10.02 405.98 9 407 C10.65 406.67 12.3 406.34 14 406 C13.34 405.34 12.68 404.68 12 404 Z M7 408 C5.96986723 409.64821244 4.96885372 411.31503702 4 413 C6.89186786 414.33304698 6.89186786 414.33304698 9.1875 413.0625 C9.785625 412.711875 10.38375 412.36125 11 412 C9.68 412 8.36 412 7 412 C7.33 410.68 7.66 409.36 8 408 C7.67 408 7.34 408 7 408 Z M127 417 C129.31 417 131.62 417 134 417 C133.67 416.01 133.34 415.02 133 414 C130.23776722 414 129.10718546 415.31425163 127 417 Z M12 415 C13 418 13 418 13 418 Z M156.375 418.3125 C153.6689011 420.7769076 153.6689011 420.7769076 154 424 C155.7074998 422.71937515 157.37373596 421.38232443 159 420 C159 419.34 159 418.68 159 418 C159.66 418 160.32 418 161 418 C161 417.34 161 416.68 161 416 C158.66706542 415.77965649 158.66706542 415.77965649 156.375 418.3125 Z M-129 418 C-128.67 418.99 -128.34 419.98 -128 421 C-127.67 420.34 -127.34 419.68 -127 419 C-124.9375 418.375 -124.9375 418.375 -123 418 C-125.49092811 416.75453595 -126.41080733 417.2232422 -129 418 Z M-159 446 C-159.66 446.66 -160.32 447.32 -161 448 C-159.68 448 -158.36 448 -157 448 C-157 447.34 -157 446.68 -157 446 C-157.66 446 -158.32 446 -159 446 Z M-6 465 C-6.99 465.66 -7.98 466.32 -9 467 C-7.68 467.33 -6.36 467.66 -5 468 C-5.33 467.01 -5.66 466.02 -6 465 Z M4 483 C2.70366379 484.06645115 2.70366379 484.06645115 2.9375 486.5625 C2.958125 487.366875 2.97875 488.17125 3 489 C6.73487777 488.5020163 8.81237635 488.12508244 12 486 C12 485.34 12 484.68 12 484 C8.00967159 483.39735687 8.00967159 483.39735687 4 483 Z M-8 494 C-8 494.99 -8 495.98 -8 497 C-7.01 496.67 -6.02 496.34 -5 496 C-5.99 495.34 -6.98 494.68 -8 494 Z M14 505 C14.99 506.485 14.99 506.485 16 508 C16 507.01 16 506.02 16 505 C15.34 505 14.68 505 14 505 Z " fill="#FFCC00" transform="translate(263,0)"/>
<path d="M0 0 C1.0625 2.375 1.0625 2.375 2 5 C1.67 5.66 1.34 6.32 1 7 C-0.77734375 7.484375 -0.77734375 7.484375 -2.9375 7.75 C-3.64777344 7.84796875 -4.35804688 7.9459375 -5.08984375 8.046875 C-7 8 -7 8 -9 6 C-8.8125 4 -8.8125 4 -8 2 C-4.77208445 -0.1519437 -3.71599191 -0.20086443 0 0 Z " fill="#FFCC00" transform="translate(196,171)"/>
<path d="M0 0 C0.66 0 1.32 0 2 0 C2 1.65 2 3.3 2 5 C1.34 5 0.68 5 0 5 C0 3.35 0 1.7 0 0 Z " fill="#FFCC00" transform="translate(381,110)"/>
</svg>
