<?xml version="1.0" standalone="no"?>
<!DOCTYPE svg PUBLIC "-//W3C//DTD SVG 20010904//EN"
 "http://www.w3.org/TR/2001/REC-SVG-20010904/DTD/svg10.dtd">
<svg version="1.0" xmlns="http://www.w3.org/2000/svg"
 width="1367.000000pt" height="1801.000000pt" viewBox="0 0 1367.000000 1801.000000"
 preserveAspectRatio="xMidYMid meet">

<g transform="translate(0.000000,1801.000000) scale(0.100000,-0.100000)"
fill="#000000" stroke="none">
<path d="M6705 12697 c-82 -193 -153 -365 -160 -380 -12 -28 -12 -28 -211 223
l-199 251 -7 -38 c-4 -21 -19 -213 -33 -428 l-25 -390 33 -335 34 -335 -28
-100 c-46 -168 -52 -216 -46 -348 8 -160 51 -424 79 -489 12 -29 37 -71 55
-95 18 -24 33 -48 33 -53 0 -13 -51 -13 -84 0 -21 8 -26 7 -26 -6 0 -23 53
-72 86 -79 55 -12 61 -16 39 -25 -17 -7 -14 -11 26 -29 26 -12 50 -28 53 -36
8 -22 127 -76 150 -69 17 6 19 2 13 -41 -6 -38 -17 -58 -56 -101 -244 -267
-660 -976 -1084 -1844 -218 -448 -304 -640 -347 -775 -23 -71 -45 -133 -49
-137 -8 -9 -71 220 -100 363 -11 52 -27 160 -36 239 -29 265 -71 413 -181 631
-81 162 -139 254 -205 324 l-49 52 49 6 c65 8 105 29 162 84 l47 45 -12 -66
c-7 -36 -9 -66 -5 -66 18 0 59 103 69 171 11 79 15 89 34 89 13 0 31 -30 55
-91 14 -34 14 74 0 166 -5 39 -7 93 -3 120 l7 50 23 -70 c23 -70 23 -70 26
-30 1 22 2 117 3 210 0 94 6 213 13 265 20 154 26 460 13 597 -15 154 -37 234
-101 363 l-50 103 0 664 0 664 -122 -128 c-67 -70 -172 -179 -233 -241 l-110
-112 -155 260 -154 260 -31 -54 c-16 -29 -88 -160 -160 -290 -71 -130 -132
-236 -135 -236 -3 0 -111 83 -240 184 l-235 184 -6 -106 c-4 -59 -7 -302 -8
-539 l-1 -433 -26 -77 c-25 -72 -28 -97 -35 -313 -10 -313 -34 -444 -97 -528
-29 -40 -113 -96 -191 -127 -30 -13 -57 -27 -59 -33 -2 -6 29 -13 73 -17 l75
-7 -36 -67 c-85 -153 -174 -269 -249 -324 l-40 -30 52 6 c29 3 86 21 127 40
l74 35 -17 -42 c-45 -104 -58 -249 -28 -316 l15 -35 1 30 c2 71 51 165 85 165
17 0 72 -120 86 -187 12 -55 2 -117 -27 -161 -40 -63 54 -25 135 53 l63 62 16
-24 c12 -18 14 -38 9 -84 -6 -66 -25 -111 -85 -204 -21 -33 -194 -330 -385
-659 -1508 -2599 -2305 -3819 -2590 -3965 -93 -48 -87 -92 28 -207 138 -138
409 -305 831 -514 364 -180 796 -365 1180 -505 72 -26 132 -49 134 -51 7 -6
-736 -962 -801 -1030 -56 -58 -73 -70 -93 -66 -17 3 -39 -6 -73 -32 -41 -30
-54 -34 -85 -29 -31 5 -44 0 -100 -40 -83 -60 -158 -142 -212 -235 -25 -43
-67 -95 -98 -123 -31 -27 -65 -68 -76 -92 -23 -48 -27 -114 -8 -137 30 -37
133 -115 262 -197 77 -50 232 -152 344 -228 112 -75 240 -155 285 -176 193
-92 423 -121 625 -79 57 11 112 25 123 31 24 13 33 49 33 130 0 52 -6 77 -28
120 -49 96 -68 110 -167 118 l-65 6 -27 55 c-15 30 -34 78 -42 106 -9 28 -25
63 -37 78 -13 17 -26 57 -35 114 -8 48 -18 111 -24 140 -6 34 -6 61 0 78 13
32 13 80 0 103 -8 16 22 45 213 203 122 101 294 242 382 313 188 151 454 379
578 495 l87 82 48 -11 c26 -7 63 -16 82 -21 l35 -9 -3 -537 c-3 -414 -7 -540
-16 -550 -18 -17 -40 -155 -33 -201 4 -26 0 -56 -11 -88 -16 -44 -22 -50 -49
-53 -29 -3 -34 -9 -68 -90 -48 -114 -56 -156 -59 -289 -2 -62 -8 -118 -14
-125 -5 -7 -13 -54 -17 -103 -8 -106 -7 -108 75 -124 61 -12 1306 -35 1535
-29 206 6 242 31 233 156 -3 48 -11 66 -45 113 -50 68 -78 82 -230 116 l-117
26 -186 123 c-102 68 -195 132 -208 143 -13 11 -41 64 -63 118 -22 54 -47 106
-56 115 -12 14 -16 36 -14 91 2 62 -1 77 -20 100 l-21 28 122 437 c68 240 127
451 131 468 l9 31 143 6 c239 11 321 38 417 136 123 126 189 346 206 682 6
121 9 139 23 135 48 -15 366 -92 561 -136 124 -29 226 -53 228 -55 2 -1 -26
-61 -61 -131 -35 -71 -79 -163 -97 -204 -40 -92 -53 -108 -99 -116 -20 -4 -44
-11 -54 -16 -23 -12 -73 -89 -88 -137 -6 -20 -26 -56 -44 -81 -38 -53 -75
-123 -75 -144 0 -8 -16 -33 -35 -56 -41 -49 -43 -65 -11 -105 23 -29 23 -29 5
-72 -10 -23 -27 -73 -39 -112 -19 -65 -25 -73 -84 -120 -36 -27 -67 -59 -71
-70 -3 -11 -35 -42 -69 -70 -43 -34 -74 -68 -96 -108 -18 -32 -61 -85 -96
-119 -62 -58 -64 -62 -64 -110 0 -39 8 -63 37 -113 80 -135 154 -207 292 -288
36 -21 102 -74 146 -118 199 -198 511 -403 752 -495 73 -27 145 -50 162 -50
38 0 73 41 129 147 66 128 64 134 -84 303 -80 90 -184 257 -184 294 0 10 -14
43 -31 73 -37 64 -48 146 -29 221 6 28 38 95 71 149 32 54 59 103 59 109 0 7
18 39 41 73 33 50 46 61 68 61 37 0 56 18 71 63 7 21 33 67 59 101 53 71 67
99 111 216 29 79 30 90 21 145 -9 55 -7 65 18 120 28 61 304 530 325 553 10
10 51 6 212 -24 l200 -37 -4 -166 c-4 -134 0 -200 19 -346 32 -243 31 -256 -8
-292 -38 -35 -49 -82 -38 -161 4 -32 8 -104 10 -162 1 -58 7 -115 13 -127 8
-13 10 -43 6 -81 l-7 -59 42 -16 c23 -10 43 -23 45 -30 2 -6 14 -58 27 -115
l23 -103 -22 -68 c-12 -37 -22 -85 -22 -107 0 -21 -10 -59 -22 -84 -17 -37
-21 -62 -20 -140 1 -72 -3 -110 -19 -157 -17 -52 -19 -69 -10 -96 16 -46 55
-81 131 -115 133 -61 156 -66 330 -72 91 -4 196 -14 235 -23 129 -30 304 -47
473 -47 199 0 309 11 457 45 146 33 148 35 143 177 -2 59 1 108 6 108 4 0 95
-58 202 -129 288 -193 372 -228 610 -251 119 -12 213 -9 353 11 63 9 81 17
118 47 39 33 43 40 43 83 0 63 -26 140 -62 183 -34 42 -92 61 -156 52 -30 -4
-53 -1 -75 11 -18 9 -52 21 -76 28 -66 17 -86 49 -84 136 2 58 -3 81 -27 134
-18 39 -35 65 -45 65 -11 0 -15 10 -15 37 0 36 -28 95 -77 161 l-24 32 35 49
c20 27 42 54 50 60 8 6 56 13 107 15 118 4 153 19 289 122 181 136 285 250
475 519 124 176 199 270 277 350 l107 111 108 -4 c59 -2 109 -5 110 -6 1 -1
18 -58 38 -126 20 -69 74 -242 120 -386 l85 -260 -6 -125 c-5 -118 -4 -131 29
-261 35 -141 56 -187 88 -195 13 -4 20 -18 25 -50 6 -44 9 -46 65 -71 62 -26
66 -33 49 -78 -6 -15 -16 -147 -21 -292 -11 -263 -11 -265 10 -286 21 -20 31
-21 229 -21 114 1 369 6 567 12 408 13 461 21 745 108 180 56 276 93 331 130
47 31 99 108 99 146 0 29 -105 180 -137 197 -10 6 -90 13 -178 17 -88 4 -171
12 -183 16 -13 5 -47 34 -75 64 -59 62 -134 105 -183 105 -48 0 -114 29 -114
50 0 45 -116 99 -232 107 l-84 6 -12 51 c-17 71 -16 79 14 107 14 13 33 37 41
53 21 40 28 205 14 306 -14 93 -91 384 -151 565 -60 184 -72 163 112 199 86
17 159 34 163 38 3 3 -21 129 -54 280 -125 567 -323 1532 -461 2253 -92 481
-202 1086 -198 1090 2 2 23 1 46 -2 42 -6 47 -10 120 -111 42 -58 146 -197
230 -309 83 -113 153 -210 153 -216 1 -7 3 -35 4 -63 6 -89 66 -211 166 -334
65 -79 126 -217 130 -295 1 -17 -2 -53 -6 -82 -7 -51 -7 -52 20 -59 34 -8 72
12 92 49 19 39 27 28 14 -20 -16 -58 -14 -91 8 -103 29 -15 49 -12 72 11 19
19 22 19 38 5 10 -9 27 -16 38 -16 22 0 77 56 88 88 3 11 17 27 30 36 48 31
105 180 105 273 0 94 -142 315 -343 532 -77 84 -83 94 -270 468 l-192 382 33
34 c17 18 32 39 32 47 0 8 -14 58 -32 110 -34 105 -84 170 -130 170 -22 0 -27
9 -57 113 -74 250 -205 732 -242 887 -22 91 -51 212 -65 270 -14 58 -46 164
-70 236 -34 102 -50 173 -70 310 -28 201 -44 272 -78 347 -35 80 -67 111 -209
199 -73 45 -156 99 -184 121 l-53 39 0 88 c0 95 -8 112 -62 125 -33 8 -33 11
-9 50 12 20 34 36 68 47 78 27 124 80 193 220 81 166 101 250 98 399 -3 113
-2 116 26 159 30 45 35 69 57 275 6 61 15 111 20 113 5 2 9 16 9 32 0 16 4 30
9 32 9 3 -8 121 -28 193 -5 19 -8 35 -5 35 2 0 24 -36 50 -81 25 -44 48 -78
50 -76 7 7 -46 151 -82 222 l-36 70 -24 437 -24 438 -96 382 c-52 211 -96 384
-98 385 -1 1 -40 -139 -86 -312 -46 -174 -87 -314 -91 -313 -4 2 -129 162
-278 356 l-270 353 -14 -33 c-201 -481 -301 -714 -306 -721 -4 -4 -97 106
-207 244 -164 208 -200 248 -203 228 -1 -13 -27 -214 -56 -446 l-52 -422 62
-363 c58 -332 62 -365 49 -391 -35 -66 -24 -477 16 -597 10 -30 20 -90 22
-132 4 -61 12 -91 37 -142 49 -100 144 -186 244 -219 14 -5 17 -19 17 -77 l0
-70 -35 0 c-42 0 -47 -9 -69 -122 -13 -65 -24 -89 -67 -148 -28 -38 -54 -70
-58 -70 -14 0 -197 -157 -280 -241 -251 -254 -407 -516 -527 -888 -79 -243
-364 -1050 -443 -1255 -11 -28 -27 1 -331 610 -175 351 -367 727 -425 834
-138 252 -303 527 -368 613 -106 139 -98 124 -80 166 43 97 73 174 73 185 0 7
-88 81 -195 165 -212 165 -203 154 -187 245 l7 39 85 17 c93 19 180 52 203 78
9 10 25 46 37 81 12 35 37 96 57 135 51 102 110 266 129 359 13 61 15 105 10
184 -5 71 -4 103 3 103 6 0 11 14 11 30 0 17 7 47 15 67 18 43 19 133 1 232
-11 62 -11 79 1 100 8 17 11 41 7 70 -6 41 -6 43 14 32 30 -16 32 -15 32 28 0
28 -10 54 -35 91 -25 36 -30 50 -18 45 10 -4 45 -10 78 -12 57 -4 59 -3 40 12
-11 9 -64 39 -117 66 -68 34 -102 57 -112 76 -10 20 -19 121 -31 358 l-16 330
-97 397 c-53 219 -99 394 -103 390 -3 -4 -41 -140 -84 -302 -43 -162 -81 -301
-85 -308 -4 -7 -110 124 -275 338 -147 193 -271 353 -275 355 -4 3 -74 -154
-155 -348z m1875 -10296 c190 -28 482 -66 650 -86 168 -20 331 -39 363 -43
l57 -7 -114 -135 c-63 -74 -137 -169 -163 -210 -29 -45 -91 -116 -156 -179
-60 -58 -115 -119 -124 -135 -9 -17 -40 -59 -71 -94 l-55 -63 6 -56 c5 -49 3
-58 -16 -74 -18 -15 -33 -17 -83 -12 -60 5 -61 5 -86 -28 -14 -19 -60 -97
-104 -174 -43 -77 -91 -155 -107 -174 -47 -55 -77 -129 -77 -190 0 -53 2 -56
55 -108 l55 -53 -68 34 c-37 19 -88 51 -112 71 -24 20 -57 42 -75 49 -17 7
-49 34 -72 60 -57 64 -83 145 -83 255 -1 47 -5 116 -9 154 -13 94 -5 142 25
156 20 9 24 17 23 53 -1 24 -4 54 -8 68 -4 14 -3 54 2 90 8 62 7 77 -23 225
-17 88 -20 95 -54 133 -65 73 -65 67 -31 347 25 203 20 189 68 182 23 -4 197
-29 387 -56z"/>
</g>
</svg>
